<?xml version="1.0" encoding="UTF-8" standalone="no"?>
<!DOCTYPE svg PUBLIC "-//W3C//DTD SVG 20010904//EN"
              "http://www.w3.org/TR/2001/REC-SVG-20010904/DTD/svg10.dtd">

<svg xmlns="http://www.w3.org/2000/svg"
     width="1.70667in" height="1.70667in"
     viewBox="0 0 512 512">
  <path id="Bottle"
        fill="#fff" stroke="#fff" stroke-width="3"
        d="M 211.00,147.00
           C 211.00,147.00 254.00,139.00 254.00,139.00
             254.00,139.00 260.00,169.00 260.00,169.00
             260.00,169.00 217.00,178.00 217.00,178.00
             217.00,178.00 211.00,147.00 211.00,147.00 Z
           M 220.00,191.00
           C 220.00,191.00 263.00,182.00 263.00,182.00
             263.96,185.63 265.52,196.23 267.72,198.40
             269.32,199.97 277.70,200.91 281.00,202.09
             288.67,204.84 295.57,210.14 300.04,217.00
             305.54,225.47 307.22,239.98 309.42,250.00
             309.42,250.00 324.65,321.00 324.65,321.00
             324.65,321.00 330.00,346.00 330.00,346.00
             330.48,348.32 332.08,354.70 331.31,356.70
             329.99,360.15 315.82,361.79 312.00,362.65
             312.00,362.65 251.00,375.65 251.00,375.65
             251.00,375.65 234.00,379.19 234.00,379.19
             231.48,379.63 229.21,380.27 227.65,377.70
             226.54,375.88 224.94,366.67 224.40,364.00
             224.40,364.00 218.74,337.00 218.74,337.00
             218.74,337.00 213.21,312.00 213.21,312.00
             213.21,312.00 205.58,275.00 205.58,275.00
             203.22,264.28 198.55,247.64 200.32,237.00
             201.62,229.25 206.36,221.42 212.01,216.09
             214.36,213.88 220.83,209.88 221.81,207.79
             223.00,205.25 220.19,195.09 220.00,191.00 Z
           M 295.00,335.00
           C 295.00,335.00 286.42,291.00 286.42,291.00
             286.42,291.00 277.79,250.00 277.79,250.00
             277.79,250.00 273.57,232.32 273.57,232.32
             271.66,229.30 267.88,230.63 265.00,231.20
             265.00,231.20 240.00,236.60 240.00,236.60
             237.41,237.12 231.75,237.58 230.69,240.31
             230.03,241.98 230.85,245.24 231.20,247.00
             231.20,247.00 234.58,263.00 234.58,263.00
             234.58,263.00 246.42,319.00 246.42,319.00
             246.42,319.00 250.12,336.00 250.12,336.00
             250.55,337.82 251.01,340.80 252.58,341.97
             255.06,343.82 262.10,341.79 265.00,341.12
             265.00,341.12 295.00,335.00 295.00,335.00 Z
           M 262.00,327.00
           C 262.00,327.00 250.00,270.00 250.00,270.00
             249.30,266.49 245.60,252.98 247.11,250.51
             248.90,247.57 259.60,246.28 263.00,246.00
             263.00,246.00 279.00,324.00 279.00,324.00
             279.00,324.00 262.00,327.00 262.00,327.00 Z" />
  <path id="Ticket"
        fill="#064e25" stroke="#064e25" stroke-width="3"
        d="M 270.00,22.00
           C 275.88,21.45 276.77,20.22 282.00,19.22
             282.00,19.22 318.00,12.20 318.00,12.20
             323.54,11.07 329.62,8.73 335.00,8.88
             344.72,9.16 353.98,12.89 359.74,21.23
             362.97,25.92 364.00,36.01 365.66,42.00
             365.66,42.00 371.45,70.00 371.45,70.00
             371.45,70.00 375.25,88.00 375.25,88.00
             375.25,88.00 377.78,97.00 377.78,97.00
             377.78,97.00 385.02,134.00 385.02,134.00
             385.02,134.00 387.58,143.00 387.58,143.00
             387.58,143.00 392.02,167.00 392.02,167.00
             392.02,167.00 394.01,174.00 394.01,174.00
             394.01,174.00 395.25,182.00 395.25,182.00
             395.25,182.00 397.28,189.00 397.28,189.00
             397.28,189.00 402.02,214.00 402.02,214.00
             402.02,214.00 404.01,221.00 404.01,221.00
             404.01,221.00 405.25,229.00 405.25,229.00
             405.25,229.00 407.28,236.00 407.28,236.00
             407.28,236.00 412.02,261.00 412.02,261.00
             412.02,261.00 414.58,270.00 414.58,270.00
             414.58,270.00 419.21,295.00 419.21,295.00
             419.21,295.00 424.58,317.00 424.58,317.00
             424.58,317.00 425.92,326.00 425.92,326.00
             425.92,326.00 432.02,355.00 432.02,355.00
             432.02,355.00 435.58,369.00 435.58,369.00
             435.58,369.00 438.81,387.00 438.81,387.00
             438.81,387.00 441.01,395.00 441.01,395.00
             441.01,395.00 442.42,404.00 442.42,404.00
             446.16,421.26 451.16,432.37 435.57,445.96
             430.06,450.77 422.93,451.17 416.00,452.60
             416.00,452.60 405.00,455.58 405.00,455.58
             405.00,455.58 397.00,456.74 397.00,456.74
             397.00,456.74 383.00,459.61 383.00,459.61
             379.25,460.30 368.28,463.72 365.31,461.94
             362.98,460.55 362.59,456.61 361.70,454.17
             359.82,448.96 356.80,443.54 353.62,439.01
             345.24,427.08 330.75,417.31 316.58,413.81
             316.58,413.81 303.00,412.43 303.00,412.43
             274.53,411.53 247.82,433.62 241.35,461.00
             238.60,472.63 239.73,478.72 242.00,490.00
             236.12,490.55 235.23,491.78 230.00,492.78
             230.00,492.78 194.00,499.80 194.00,499.80
             188.46,500.93 182.38,503.27 177.00,503.12
             167.28,502.84 158.02,499.11 152.26,490.77
             149.03,486.08 148.00,475.99 146.34,470.00
             146.34,470.00 140.55,442.00 140.55,442.00
             140.55,442.00 136.75,424.00 136.75,424.00
             136.75,424.00 134.22,415.00 134.22,415.00
             134.22,415.00 126.98,378.00 126.98,378.00
             126.98,378.00 124.42,369.00 124.42,369.00
             124.42,369.00 119.98,345.00 119.98,345.00
             119.98,345.00 117.99,338.00 117.99,338.00
             117.99,338.00 116.75,330.00 116.75,330.00
             116.75,330.00 114.72,323.00 114.72,323.00
             114.72,323.00 109.98,298.00 109.98,298.00
             109.98,298.00 107.99,291.00 107.99,291.00
             107.99,291.00 106.75,283.00 106.75,283.00
             106.75,283.00 104.72,276.00 104.72,276.00
             104.72,276.00 99.98,251.00 99.98,251.00
             99.98,251.00 97.42,242.00 97.42,242.00
             97.42,242.00 92.79,217.00 92.79,217.00
             92.79,217.00 87.42,195.00 87.42,195.00
             87.42,195.00 86.08,186.00 86.08,186.00
             86.08,186.00 79.98,157.00 79.98,157.00
             79.98,157.00 76.42,143.00 76.42,143.00
             76.42,143.00 73.19,125.00 73.19,125.00
             73.19,125.00 70.99,117.00 70.99,117.00
             70.99,117.00 69.58,108.00 69.58,108.00
             65.84,90.74 60.84,79.63 76.43,66.04
             81.94,61.23 89.07,60.83 96.00,59.40
             96.00,59.40 107.00,56.42 107.00,56.42
             107.00,56.42 115.00,55.26 115.00,55.26
             115.00,55.26 129.00,52.39 129.00,52.39
             132.75,51.70 143.72,48.28 146.69,50.06
             149.02,51.45 149.41,55.39 150.30,57.83
             152.18,63.04 155.20,68.46 158.38,72.99
             166.76,84.92 181.25,94.69 195.42,98.19
             195.42,98.19 209.00,99.57 209.00,99.57
             237.47,100.47 264.18,78.38 270.65,51.00
             273.40,39.37 272.27,33.28 270.00,22.00 Z
           M 209.00,146.00
           C 209.06,152.87 211.76,165.01 213.43,172.00
             214.55,176.71 215.52,179.58 221.00,178.94
             221.00,178.94 240.00,174.41 240.00,174.41
             240.00,174.41 251.00,172.57 251.00,172.57
             253.67,172.01 259.50,171.15 260.74,168.69
             262.01,166.70 261.02,163.15 260.74,161.00
             260.74,161.00 257.00,144.00 257.00,144.00
             256.40,141.31 256.06,138.07 252.86,137.40
             250.76,136.96 242.57,138.88 240.00,139.40
             240.00,139.40 209.00,146.00 209.00,146.00 Z
           M 265.00,181.00
           C 256.89,181.07 239.58,185.14 231.00,187.12
             228.43,187.71 220.42,188.81 219.03,190.73
             217.34,193.07 220.54,205.60 221.00,209.00
             207.28,212.73 197.31,231.33 198.09,245.00
             198.09,245.00 204.00,276.00 204.00,276.00
             204.00,276.00 217.20,338.00 217.20,338.00
             217.20,338.00 224.23,370.96 224.23,370.96
             225.11,374.79 225.06,381.20 230.05,381.34
             230.05,381.34 253.00,376.80 253.00,376.80
             253.00,376.80 308.00,365.00 308.00,365.00
             308.00,365.00 326.00,361.21 326.00,361.21
             328.06,360.76 331.69,360.30 332.94,358.44
             334.55,356.06 332.28,348.79 331.65,346.00
             331.65,346.00 324.65,313.00 324.65,313.00
             324.65,313.00 310.88,249.00 310.88,249.00
             306.46,229.15 305.21,208.44 282.00,200.75
             277.76,199.34 272.45,198.36 268.00,198.00
             268.00,198.00 265.00,181.00 265.00,181.00 Z
           M 232.00,240.00
           C 232.00,240.00 261.00,233.80 261.00,233.80
             261.00,233.80 271.27,233.03 271.27,233.03
             271.27,233.03 273.80,240.00 273.80,240.00
             273.80,240.00 277.65,258.00 277.65,258.00
             277.65,258.00 288.00,307.00 288.00,307.00
             288.00,307.00 293.00,334.00 293.00,334.00
             293.00,334.00 253.00,342.00 253.00,342.00
             253.00,342.00 237.80,270.00 237.80,270.00
             237.80,270.00 232.00,240.00 232.00,240.00 Z
           M 261.00,329.00
           C 264.77,328.70 277.98,327.34 279.94,324.44
             281.66,321.89 278.10,309.48 277.40,306.00
             277.40,306.00 268.21,263.00 268.21,263.00
             267.51,259.71 265.61,247.55 263.86,245.59
             261.65,243.11 245.96,246.38 244.77,250.14
             244.03,252.48 248.06,269.33 248.80,273.00
             248.80,273.00 253.80,296.00 253.80,296.00
             253.80,296.00 261.00,329.00 261.00,329.00 Z" />
</svg>
